PathFileType	4	(X/Y/Z)	C:\Users\italobelli\Desktop\GitHub\PTbot_officialCBL\Personal_Results\ABD02_noisy1.trc
DataRate	CameraRate	NumFrames	NumMarkers	Units	OrigDataRate	OrigDataStartFrame	OrigNumFrames
106.125000	106.125000	51	9	m	106.125000	319	850
Frame#	Time		gu		centelbow		EpL		centpxt8		centijc7		ij		ts		aa		ai
			X1	Y1	Z1	X2	Y2	Z2	X3	Y3	Z3	X4	Y4	Z4	X5	Y5	Z5	X6	Y6	Z6	X7	Y7	Z7	X8	Y8	Z8	X9	Y9	Z9

319	2.9965	-0.11051	0.075072	0.10311	-0.13648	0.28747	0.23259	-0.15344	0.29753	0.20709	-0.046816	-0.15316	-0.008669	-0.046816	0.031938	-0.008669	0	0	0	-0.1354	-0.017944	0.042503	-0.15884	0.085812	0.096435	-0.14639	-0.067281	0.14414
320	3.0059	-0.11056	0.074964	0.10295	-0.13522	0.2878	0.23132	-0.15225	0.29784	0.20584	-0.046816	-0.15316	-0.008669	-0.046816	0.031938	-0.008669	0	0	0	-0.13553	-0.018002	0.042642	-0.15884	0.085885	0.096417	-0.14641	-0.067108	0.14441
321	3.0153	-0.1106	0.074848	0.1028	-0.1339	0.28812	0.23005	-0.151	0.29815	0.20458	-0.046816	-0.15316	-0.008669	-0.046816	0.031938	-0.008669	0	0	0	-0.13566	-0.018058	0.042786	-0.15882	0.085959	0.096402	-0.14642	-0.066933	0.14468
322	3.0247	-0.11064	0.074725	0.10264	-0.13252	0.28845	0.22878	-0.14968	0.29846	0.20333	-0.046816	-0.15316	-0.008669	-0.046816	0.031938	-0.008669	0	0	0	-0.1358	-0.018114	0.042934	-0.15881	0.086034	0.096389	-0.14642	-0.066756	0.14496
323	3.0342	-0.11068	0.074595	0.10249	-0.13108	0.28877	0.2275	-0.14831	0.29877	0.20207	-0.046816	-0.15316	-0.008669	-0.046816	0.031938	-0.008669	0	0	0	-0.13594	-0.018169	0.043086	-0.15878	0.086111	0.096378	-0.14642	-0.066576	0.14524
324	3.0436	-0.11072	0.074458	0.10234	-0.12958	0.2891	0.22622	-0.14688	0.29909	0.20081	-0.046816	-0.15316	-0.008669	-0.046816	0.031938	-0.008669	0	0	0	-0.1361	-0.018223	0.043243	-0.15875	0.086189	0.09637	-0.14642	-0.066393	0.14553
325	3.053	-0.11076	0.074315	0.1022	-0.12802	0.28943	0.22493	-0.1454	0.29941	0.19956	-0.046816	-0.15316	-0.008669	-0.046816	0.031938	-0.008669	0	0	0	-0.13626	-0.018276	0.043403	-0.15872	0.086269	0.096363	-0.14641	-0.066209	0.14582
326	3.0624	-0.1108	0.074166	0.10205	-0.12642	0.28976	0.22364	-0.14387	0.29973	0.1983	-0.046816	-0.15316	-0.008669	-0.046816	0.031938	-0.008669	0	0	0	-0.13642	-0.018328	0.043566	-0.15868	0.086349	0.096358	-0.1464	-0.066023	0.14612
327	3.0718	-0.11084	0.074012	0.10191	-0.12476	0.29008	0.22235	-0.14229	0.30004	0.19705	-0.046816	-0.15316	-0.008669	-0.046816	0.031938	-0.008669	0	0	0	-0.13659	-0.01838	0.043732	-0.15864	0.08643	0.096355	-0.14638	-0.065836	0.14641
328	3.0813	-0.11088	0.073852	0.10177	-0.12306	0.29041	0.22106	-0.14067	0.30036	0.1958	-0.046816	-0.15316	-0.008669	-0.046816	0.031938	-0.008669	0	0	0	-0.13677	-0.018431	0.043901	-0.15859	0.086512	0.096353	-0.14636	-0.065647	0.14671
329	3.0907	-0.11092	0.073687	0.10163	-0.12133	0.29074	0.21978	-0.13901	0.30068	0.19456	-0.046816	-0.15316	-0.008669	-0.046816	0.031938	-0.008669	0	0	0	-0.13695	-0.018481	0.044073	-0.15854	0.086595	0.096353	-0.14634	-0.065457	0.14702
330	3.1001	-0.11096	0.073518	0.1015	-0.11955	0.29107	0.21849	-0.13732	0.301	0.19332	-0.046816	-0.15316	-0.008669	-0.046816	0.031938	-0.008669	0	0	0	-0.13714	-0.01853	0.044247	-0.15849	0.086679	0.096354	-0.14632	-0.065267	0.14732
331	3.1095	-0.111	0.073344	0.10137	-0.11774	0.29139	0.21721	-0.13559	0.30132	0.1921	-0.046816	-0.15316	-0.008669	-0.046816	0.031938	-0.008669	0	0	0	-0.13733	-0.018578	0.044423	-0.15843	0.086763	0.096357	-0.14629	-0.065075	0.14763
332	3.119	-0.11104	0.073167	0.10123	-0.1159	0.29171	0.21594	-0.13384	0.30163	0.19088	-0.046816	-0.15316	-0.008669	-0.046816	0.031938	-0.008669	0	0	0	-0.13752	-0.018626	0.044601	-0.15837	0.086848	0.09636	-0.14626	-0.064883	0.14793
333	3.1284	-0.11108	0.072986	0.10111	-0.11404	0.29203	0.21467	-0.13205	0.30194	0.18967	-0.046816	-0.15316	-0.008669	-0.046816	0.031938	-0.008669	0	0	0	-0.13772	-0.018672	0.04478	-0.1583	0.086933	0.096365	-0.14622	-0.064691	0.14824
334	3.1378	-0.11111	0.072802	0.10098	-0.11215	0.29235	0.21341	-0.13025	0.30225	0.18846	-0.046816	-0.15316	-0.008669	-0.046816	0.031938	-0.008669	0	0	0	-0.13793	-0.018718	0.04496	-0.15823	0.087018	0.096371	-0.14619	-0.064499	0.14855
335	3.1472	-0.11115	0.072616	0.10085	-0.11024	0.29266	0.21216	-0.12843	0.30256	0.18728	-0.046816	-0.15316	-0.008669	-0.046816	0.031938	-0.008669	0	0	0	-0.13813	-0.018763	0.045141	-0.15816	0.087104	0.096378	-0.14615	-0.064307	0.14886
336	3.1567	-0.11119	0.072427	0.10073	-0.10831	0.29296	0.21092	-0.12659	0.30286	0.1861	-0.046816	-0.15316	-0.008669	-0.046816	0.031938	-0.008669	0	0	0	-0.13834	-0.018807	0.045323	-0.15809	0.087189	0.096386	-0.14611	-0.064116	0.14916
337	3.1661	-0.11122	0.072235	0.10061	-0.10637	0.29327	0.20969	-0.12473	0.30316	0.18494	-0.046816	-0.15316	-0.008669	-0.046816	0.031938	-0.008669	0	0	0	-0.13855	-0.01885	0.045505	-0.15801	0.087275	0.096395	-0.14607	-0.063925	0.14947
338	3.1755	-0.11126	0.072043	0.10049	-0.10442	0.29356	0.20848	-0.12287	0.30345	0.18379	-0.046816	-0.15316	-0.008669	-0.046816	0.031938	-0.008669	0	0	0	-0.13877	-0.018892	0.045687	-0.15793	0.087361	0.096404	-0.14602	-0.063735	0.14977
339	3.1849	-0.11129	0.071848	0.10038	-0.10247	0.29385	0.20727	-0.121	0.30374	0.18265	-0.046816	-0.15316	-0.008669	-0.046816	0.031938	-0.008669	0	0	0	-0.13898	-0.018933	0.045869	-0.15785	0.087446	0.096414	-0.14598	-0.063546	0.15007
340	3.1943	-0.11133	0.071653	0.10027	-0.10051	0.29414	0.20609	-0.11913	0.30402	0.18154	-0.046816	-0.15316	-0.008669	-0.046816	0.031938	-0.008669	0	0	0	-0.1392	-0.018974	0.04605	-0.15777	0.087531	0.096425	-0.14593	-0.063359	0.15037
341	3.2038	-0.11136	0.071458	0.10016	-0.098549	0.29442	0.20492	-0.11726	0.30429	0.18044	-0.046816	-0.15316	-0.008669	-0.046816	0.031938	-0.008669	0	0	0	-0.13942	-0.019013	0.046231	-0.15769	0.087616	0.096436	-0.14588	-0.063173	0.15067
342	3.2132	-0.11139	0.071262	0.10005	-0.096596	0.29469	0.20376	-0.1154	0.30456	0.17936	-0.046816	-0.15316	-0.008669	-0.046816	0.031938	-0.008669	0	0	0	-0.13964	-0.019052	0.04641	-0.1576	0.0877	0.096447	-0.14583	-0.062988	0.15096
343	3.2226	-0.11143	0.071066	0.099943	-0.094649	0.29495	0.20263	-0.11354	0.30482	0.1783	-0.046816	-0.15316	-0.008669	-0.046816	0.031938	-0.008669	0	0	0	-0.13986	-0.01909	0.046589	-0.15752	0.087784	0.096458	-0.14578	-0.062806	0.15126
344	3.232	-0.11146	0.07087	0.09984	-0.092714	0.29521	0.20151	-0.11169	0.30508	0.17726	-0.046816	-0.15316	-0.008669	-0.046816	0.031938	-0.008669	0	0	0	-0.14009	-0.019126	0.046765	-0.15743	0.087867	0.09647	-0.14573	-0.062626	0.15154
345	3.2415	-0.11149	0.070676	0.099739	-0.090793	0.29545	0.20042	-0.10986	0.30532	0.17624	-0.046816	-0.15316	-0.008669	-0.046816	0.031938	-0.008669	0	0	0	-0.14031	-0.019162	0.04694	-0.15735	0.08795	0.096482	-0.14568	-0.062448	0.15182
346	3.2509	-0.11152	0.070482	0.09964	-0.088889	0.29569	0.19935	-0.10804	0.30556	0.17524	-0.046816	-0.15316	-0.008669	-0.046816	0.031938	-0.008669	0	0	0	-0.14053	-0.019197	0.047112	-0.15726	0.088031	0.096493	-0.14563	-0.062272	0.1521
347	3.2603	-0.11155	0.07029	0.099544	-0.087007	0.29592	0.1983	-0.10624	0.30579	0.17427	-0.046816	-0.15316	-0.008669	-0.046816	0.031938	-0.008669	0	0	0	-0.14075	-0.019231	0.047282	-0.15717	0.088112	0.096505	-0.14558	-0.0621	0.15237
348	3.2697	-0.11158	0.0701	0.099451	-0.085149	0.29614	0.19728	-0.10447	0.30601	0.17332	-0.046816	-0.15316	-0.008669	-0.046816	0.031938	-0.008669	0	0	0	-0.14097	-0.019264	0.047449	-0.15709	0.088192	0.096516	-0.14553	-0.061931	0.15264
349	3.2792	-0.11161	0.069912	0.09936	-0.083319	0.29634	0.19628	-0.10272	0.30621	0.1724	-0.046816	-0.15316	-0.008669	-0.046816	0.031938	-0.008669	0	0	0	-0.14119	-0.019296	0.047613	-0.157	0.08827	0.096527	-0.14548	-0.061764	0.1529
350	3.2886	-0.11164	0.069727	0.099271	-0.081521	0.29654	0.19531	-0.10101	0.30641	0.17151	-0.046816	-0.15316	-0.008669	-0.046816	0.031938	-0.008669	0	0	0	-0.14141	-0.019327	0.047774	-0.15691	0.088347	0.096538	-0.14543	-0.061602	0.15316
351	3.298	-0.11166	0.069545	0.099185	-0.079757	0.29672	0.19437	-0.099323	0.3066	0.17064	-0.046816	-0.15316	-0.008669	-0.046816	0.031938	-0.008669	0	0	0	-0.14163	-0.019357	0.047931	-0.15683	0.088423	0.096548	-0.14538	-0.061442	0.1534
352	3.3074	-0.11169	0.069366	0.099102	-0.078032	0.2969	0.19346	-0.097678	0.30677	0.16981	-0.046816	-0.15316	-0.008669	-0.046816	0.031938	-0.008669	0	0	0	-0.14184	-0.019386	0.048084	-0.15674	0.088498	0.096557	-0.14533	-0.061287	0.15364
353	3.3168	-0.11171	0.06919	0.099021	-0.076348	0.29705	0.19258	-0.096072	0.30693	0.169	-0.046816	-0.15316	-0.008669	-0.046816	0.031938	-0.008669	0	0	0	-0.14206	-0.019414	0.048234	-0.15666	0.088571	0.096566	-0.14528	-0.061136	0.15388
354	3.3263	-0.11174	0.069019	0.098942	-0.07471	0.2972	0.19173	-0.094511	0.30708	0.16822	-0.046816	-0.15316	-0.008669	-0.046816	0.031938	-0.008669	0	0	0	-0.14227	-0.019441	0.048378	-0.15658	0.088643	0.096574	-0.14523	-0.06099	0.1541
355	3.3357	-0.11176	0.068852	0.098866	-0.07312	0.29734	0.19091	-0.092996	0.30722	0.16748	-0.046816	-0.15316	-0.008669	-0.046816	0.031938	-0.008669	0	0	0	-0.14247	-0.019467	0.048518	-0.1565	0.088713	0.096581	-0.14518	-0.060847	0.15432
356	3.3451	-0.11179	0.06869	0.098793	-0.071582	0.29745	0.19013	-0.091532	0.30734	0.16677	-0.046816	-0.15316	-0.008669	-0.046816	0.031938	-0.008669	0	0	0	-0.14268	-0.019492	0.048654	-0.15642	0.088781	0.096588	-0.14514	-0.06071	0.15453
357	3.3545	-0.11181	0.068532	0.098722	-0.0701	0.29756	0.18939	-0.090121	0.30745	0.16609	-0.046816	-0.15316	-0.008669	-0.046816	0.031938	-0.008669	0	0	0	-0.14288	-0.019516	0.048783	-0.15635	0.088847	0.096593	-0.14509	-0.060578	0.15472
358	3.364	-0.11183	0.068381	0.098654	-0.068676	0.29765	0.18868	-0.088767	0.30755	0.16545	-0.046816	-0.15316	-0.008669	-0.046816	0.031938	-0.008669	0	0	0	-0.14307	-0.019539	0.048908	-0.15627	0.088912	0.096597	-0.14505	-0.06045	0.15491
359	3.3734	-0.11185	0.068235	0.098588	-0.067315	0.29772	0.18801	-0.087473	0.30762	0.16485	-0.046816	-0.15316	-0.008669	-0.046816	0.031938	-0.008669	0	0	0	-0.14327	-0.019561	0.049026	-0.1562	0.088974	0.0966	-0.14501	-0.060329	0.15509
360	3.3828	-0.11187	0.068095	0.098525	-0.066019	0.29778	0.18738	-0.086242	0.30769	0.16428	-0.046816	-0.15316	-0.008669	-0.046816	0.031938	-0.008669	0	0	0	-0.14346	-0.019582	0.049139	-0.15613	0.089034	0.096601	-0.14497	-0.060212	0.15526
361	3.3922	-0.11189	0.067962	0.098465	-0.064793	0.29783	0.18679	-0.085078	0.30773	0.16375	-0.046816	-0.15316	-0.008669	-0.046816	0.031938	-0.008669	0	0	0	-0.14364	-0.019602	0.049245	-0.15607	0.089092	0.096601	-0.14494	-0.060102	0.15542
362	3.4016	-0.11191	0.067835	0.098407	-0.063639	0.29785	0.18624	-0.083985	0.30777	0.16326	-0.046816	-0.15316	-0.008669	-0.046816	0.031938	-0.008669	0	0	0	-0.14382	-0.019621	0.049344	-0.15601	0.089148	0.0966	-0.14491	-0.059998	0.15556
363	3.4111	-0.11193	0.067716	0.098352	-0.062561	0.29786	0.18573	-0.082964	0.30778	0.16281	-0.046816	-0.15316	-0.008669	-0.046816	0.031938	-0.008669	0	0	0	-0.14399	-0.019639	0.049437	-0.15595	0.089201	0.096597	-0.14487	-0.0599	0.1557
364	3.4205	-0.11194	0.067605	0.0983	-0.061563	0.29785	0.18527	-0.082021	0.30778	0.16241	-0.046816	-0.15316	-0.008669	-0.046816	0.031938	-0.008669	0	0	0	-0.14416	-0.019655	0.049522	-0.15589	0.089252	0.096592	-0.14485	-0.059808	0.15582
365	3.4299	-0.11196	0.067501	0.09825	-0.060647	0.29782	0.18485	-0.081157	0.30775	0.16204	-0.046816	-0.15316	-0.008669	-0.046816	0.031938	-0.008669	0	0	0	-0.14432	-0.019671	0.0496	-0.15584	0.0893	0.096586	-0.14482	-0.059724	0.15593
366	3.4393	-0.11197	0.067405	0.098204	-0.059818	0.29778	0.18448	-0.080377	0.30771	0.16172	-0.046816	-0.15316	-0.008669	-0.046816	0.031938	-0.008669	0	0	0	-0.14447	-0.019686	0.04967	-0.1558	0.089345	0.096578	-0.1448	-0.059646	0.15603
367	3.4488	-0.11198	0.067319	0.098159	-0.059078	0.29771	0.18416	-0.079683	0.30766	0.16144	-0.046816	-0.15316	-0.008669	-0.046816	0.031938	-0.008669	0	0	0	-0.14462	-0.019699	0.049732	-0.15575	0.089388	0.096568	-0.14478	-0.059575	0.15611
368	3.4582	-0.112	0.067241	0.098118	-0.058432	0.29763	0.18388	-0.079079	0.30758	0.16121	-0.046816	-0.15316	-0.008669	-0.046816	0.031938	-0.008669	0	0	0	-0.14476	-0.019711	0.049785	-0.15572	0.089427	0.096555	-0.14477	-0.059512	0.15618
369	3.4676	-0.11201	0.067173	0.098079	-0.057882	0.29752	0.18366	-0.078568	0.30748	0.16103	-0.046816	-0.15316	-0.008669	-0.046816	0.031938	-0.008669	0	0	0	-0.1449	-0.019723	0.04983	-0.15568	0.089464	0.096541	-0.14476	-0.059456	0.15623
